<svg width="16" height="16" viewBox="0 0 16 16" fill="none" xmlns="http://www.w3.org/2000/svg">
<path d="M11.1296 9.87907H10.4712L10.2379 9.65407C11.0546 8.70407 11.5462 7.47074 11.5462 6.12907C11.5462 3.1374 9.12122 0.712402 6.12956 0.712402C3.13789 0.712402 0.712891 3.1374 0.712891 6.12907C0.712891 9.12074 3.13789 11.5457 6.12956 11.5457C7.47122 11.5457 8.70456 11.0541 9.65456 10.2374L9.87956 10.4707V11.1291L14.0462 15.2874L15.2879 14.0457L11.1296 9.87907ZM6.12956 9.87907C4.05456 9.87907 2.37956 8.20407 2.37956 6.12907C2.37956 4.05407 4.05456 2.37907 6.12956 2.37907C8.20456 2.37907 9.87956 4.05407 9.87956 6.12907C9.87956 8.20407 8.20456 9.87907 6.12956 9.87907Z" fill="#525252"/>
</svg>
