<svg width="32" height="32" viewBox="0 0 32 32" fill="none" xmlns="http://www.w3.org/2000/svg">
<g clip-path="url(#clip0_923_2441)">
<mask id="mask0_923_2441" style="mask-type:luminance" maskUnits="userSpaceOnUse" x="0" y="0" width="32" height="32">
<path d="M32 0H0V32H32V0Z" fill="white"/>
</mask>
<g mask="url(#mask0_923_2441)">
<path d="M32 0H0V32H32V0Z" fill="#132F47"/>
<path d="M5.33301 16.0007C5.33301 13.1717 6.45681 10.4586 8.4572 8.45818C10.4576 6.45779 13.1707 5.33398 15.9997 5.33398C18.8287 5.33398 21.5418 6.45779 23.5421 8.45818C25.5425 10.4586 26.6663 13.1717 26.6663 16.0007C26.6663 18.8296 25.5425 21.5427 23.5421 23.5431C21.5418 25.5435 18.8287 26.6673 15.9997 26.6673C13.1707 26.6673 10.4576 25.5435 8.4572 23.5431C6.45681 21.5427 5.33301 18.8296 5.33301 16.0007ZM15.333 6.76998C14.4397 7.04198 13.553 7.86332 12.817 9.24332C12.5745 9.70211 12.366 10.1781 12.193 10.6673H15.333V6.76998ZM10.7863 10.6673C11.009 9.95932 11.293 9.27265 11.6397 8.61532C11.8702 8.17939 12.1365 7.7633 12.4357 7.37132C10.7837 8.05642 9.36235 9.20015 8.33967 10.6673H10.7863ZM10.0103 15.334C10.0503 14.1647 10.1943 13.0433 10.4263 12.0007H7.56501C7.06783 13.0474 6.77116 14.178 6.69034 15.334H10.0103ZM11.7957 12.0007C11.5334 13.0937 11.3824 14.2105 11.345 15.334H15.333V12.0007H11.7957ZM16.6663 12.0007V15.334H20.653C20.6157 14.21 20.4663 13.094 20.2037 12.0007H16.6663ZM11.3463 16.6673C11.3837 17.7913 11.533 18.9073 11.7957 20.0007H15.333V16.6673H11.3463ZM16.6663 16.6673V20.0007H20.2037C20.453 18.9807 20.6117 17.8567 20.6543 16.6673H16.6663ZM12.193 21.334C12.377 21.8487 12.5863 22.326 12.817 22.758C13.553 24.138 14.441 24.958 15.333 25.2313V21.334H12.193ZM12.4357 24.63C12.1364 24.238 11.8702 23.8219 11.6397 23.386C11.2942 22.729 11.0086 22.0422 10.7863 21.334H8.33967C9.36229 22.8012 10.7836 23.9449 12.4357 24.63ZM10.4263 20.0007C10.1852 18.9047 10.046 17.7889 10.0103 16.6673H6.69034C6.77301 17.854 7.07834 18.978 7.56501 20.0007H10.4263ZM19.5637 24.63C21.2157 23.9449 22.637 22.8012 23.6597 21.334H21.213C20.9908 22.0422 20.7052 22.729 20.3597 23.386C20.1292 23.8219 19.8629 24.238 19.5637 24.63ZM16.6663 21.334V25.2313C17.5597 24.9593 18.4463 24.138 19.1823 22.758C19.413 22.326 19.6223 21.8487 19.8063 21.334H16.6663ZM21.573 20.0007H24.4343C24.921 18.978 25.2263 17.854 25.309 16.6673H21.989C21.9534 17.7889 21.8141 18.9047 21.573 20.0007ZM25.309 15.334C25.2282 14.178 24.9315 13.0474 24.4343 12.0007H21.573C21.805 13.0433 21.949 14.1647 21.989 15.334H25.309ZM20.3597 8.61532C20.689 9.23398 20.9757 9.92198 21.213 10.6673H23.6597C22.6371 9.2001 21.2157 8.05636 19.5637 7.37132C19.8543 7.74998 20.121 8.16865 20.3597 8.61532ZM19.8063 10.6673C19.6334 10.178 19.4249 9.7021 19.1823 9.24332C18.4463 7.86332 17.5597 7.04332 16.6663 6.76998V10.6673H19.8063Z" fill="white"/>
</g>
</g>
<defs>
<clipPath id="clip0_923_2441">
<rect width="32" height="32" rx="16" fill="white"/>
</clipPath>
</defs>
</svg>
